<?xml version="1.0" standalone="no"?>
<!DOCTYPE svg PUBLIC "-//W3C//DTD SVG 20010904//EN"
 "http://www.w3.org/TR/2001/REC-SVG-20010904/DTD/svg10.dtd">
<svg version="1.0" xmlns="http://www.w3.org/2000/svg"
 width="200.000000pt" height="200.000000pt" viewBox="0 0 200.000000 200.000000"
 preserveAspectRatio="xMidYMid meet">
<metadata>
Created by potrace 1.11, written by Peter Selinger 2001-2013
</metadata>
<g transform="translate(0.000000,200.000000) scale(0.100000,-0.100000)"
fill="#000000" stroke="none">
<path d="M825 1721 c-99 -75 -309 -235 -468 -355 -274 -208 -337 -262 -337
-290 0 -29 25 -36 132 -36 l108 0 0 -450 0 -450 293 0 292 0 -1 113 c-1 105
-3 116 -33 177 -34 69 -76 120 -126 152 -27 18 -28 19 -5 12 74 -20 122 -60
158 -128 l21 -39 6 29 c11 48 32 116 51 165 17 46 17 48 -5 115 -58 173 -163
292 -291 329 -15 4 -4 -8 29 -31 95 -65 191 -182 216 -262 6 -22 5 -23 -32
-16 -171 31 -283 152 -308 332 -8 60 -9 60 103 42 187 -31 292 -125 322 -289
6 -35 8 -82 5 -105 l-7 -41 35 51 c84 122 222 216 375 255 120 30 122 30 122
-40 0 -214 -159 -386 -395 -430 -32 -6 -61 -9 -63 -6 -8 8 25 86 65 154 47 80
124 165 183 204 40 26 42 29 15 22 -133 -30 -265 -193 -315 -390 -22 -84 -38
-302 -26 -348 l6 -27 395 0 395 0 2 448 3 447 109 5 c126 6 143 16 110 68 -17
27 -166 149 -311 255 l-53 39 0 137 c0 76 -5 152 -11 169 -14 41 -49 62 -103
62 -36 0 -52 -6 -78 -29 -27 -24 -32 -36 -36 -90 -2 -33 -6 -61 -9 -61 -2 0
-80 58 -172 128 -92 71 -171 131 -177 134 -5 4 -91 -55 -189 -131z m395 -166
c118 -91 218 -165 223 -165 4 0 7 63 7 141 l0 140 38 -3 37 -3 3 -177 c1 -98
6 -178 10 -178 4 -1 21 -12 37 -25 l30 -25 -600 0 c-526 0 -597 2 -585 15 21
20 574 444 580 444 3 1 102 -74 220 -164z"/>
</g>
</svg>
